<svg width="45" height="24" viewBox="0 0 45 24" fill="none" xmlns="http://www.w3.org/2000/svg">
<path d="M16.898 19.478H7.446L5.882 24H0.884L9.418 0.233998H14.96L23.494 24H18.462L16.898 19.478ZM15.606 15.67L12.172 5.742L8.738 15.67H15.606ZM38.9239 24L33.6879 14.752H31.4439V24H26.6839V0.268H35.5919C37.4279 0.268 38.9919 0.596666 40.2839 1.254C41.5759 1.88867 42.5392 2.76133 43.1739 3.872C43.8312 4.96 44.1599 6.184 44.1599 7.544C44.1599 9.108 43.7066 10.5247 42.7999 11.794C41.8932 13.0407 40.5446 13.902 38.7539 14.378L44.4319 24H38.9239ZM31.4439 11.182H35.4219C36.7139 11.182 37.6772 10.876 38.3119 10.264C38.9466 9.62933 39.2639 8.75667 39.2639 7.646C39.2639 6.558 38.9466 5.71933 38.3119 5.13C37.6772 4.518 36.7139 4.212 35.4219 4.212H31.4439V11.182Z" fill="white"/>
</svg>
