<svg width="387" height="151" viewBox="0 0 387 151" fill="none" xmlns="http://www.w3.org/2000/svg">
<path d="M0.0614344 148V2.54545H54.6069C65.7811 2.54545 75.1561 4.62878 82.7319 8.79545C90.355 12.9621 96.1078 18.6913 99.9904 25.983C103.92 33.2273 105.885 41.4659 105.885 50.6989C105.885 60.0265 103.92 68.3125 99.9904 75.5568C96.0605 82.8011 90.2603 88.5066 82.5898 92.6733C74.9194 96.7926 65.4734 98.8523 54.2518 98.8523H18.1012V77.1903H50.7006C57.2347 77.1903 62.5851 76.054 66.7518 73.7812C70.9184 71.5085 73.9961 68.3835 75.9847 64.4062C78.0207 60.429 79.0387 55.8598 79.0387 50.6989C79.0387 45.5379 78.0207 40.9924 75.9847 37.0625C73.9961 33.1326 70.8948 30.0786 66.6808 27.9006C62.5141 25.6752 57.14 24.5625 50.5586 24.5625H26.4109V148H0.0614344ZM226.216 48.9943C225.032 45.1591 223.398 41.7263 221.315 38.696C219.279 35.6184 216.817 32.9905 213.929 30.8125C211.088 28.6345 207.821 27.0009 204.127 25.9119C200.434 24.7756 196.41 24.2074 192.054 24.2074C184.241 24.2074 177.281 26.1723 171.173 30.1023C165.065 34.0322 160.259 39.8087 156.755 47.4318C153.299 55.0076 151.571 64.2405 151.571 75.1307C151.571 86.1155 153.299 95.4195 156.755 103.043C160.212 110.666 165.018 116.466 171.173 120.443C177.328 124.373 184.478 126.338 192.622 126.338C200.008 126.338 206.4 124.918 211.798 122.077C217.243 119.236 221.433 115.211 224.369 110.003C227.305 104.747 228.772 98.5919 228.772 91.5369L234.738 92.4602H195.25V71.8636H254.27V89.3352C254.27 101.788 251.618 112.56 246.315 121.651C241.012 130.741 233.72 137.749 224.44 142.673C215.16 147.55 204.506 149.989 192.48 149.989C179.08 149.989 167.314 146.982 157.181 140.969C147.096 134.908 139.213 126.314 133.531 115.188C127.896 104.013 125.079 90.7557 125.079 75.4148C125.079 63.6723 126.736 53.1847 130.051 43.9517C133.413 34.7188 138.1 26.8826 144.113 20.4432C150.127 13.9564 157.181 9.03219 165.278 5.67045C173.375 2.26136 182.181 0.556813 191.699 0.556813C199.748 0.556813 207.252 1.74053 214.213 4.10795C221.173 6.42803 227.352 9.74242 232.75 14.0511C238.195 18.3598 242.669 23.4735 246.173 29.392C249.677 35.3106 251.973 41.8447 253.062 48.9943H226.216ZM358.797 42.5312C358.134 36.3286 355.341 31.4991 350.417 28.0426C345.54 24.5862 339.195 22.858 331.382 22.858C325.89 22.858 321.179 23.6866 317.249 25.3438C313.319 27.0009 310.312 29.25 308.229 32.0909C306.146 34.9318 305.08 38.1752 305.033 41.821C305.033 44.8513 305.72 47.4792 307.093 49.7045C308.513 51.9299 310.431 53.8239 312.846 55.3864C315.26 56.9015 317.935 58.1799 320.871 59.2216C323.807 60.2633 326.766 61.1392 329.749 61.8494L343.385 65.2585C348.878 66.5369 354.157 68.2651 359.223 70.4432C364.337 72.6212 368.906 75.3674 372.931 78.6818C377.003 81.9962 380.222 85.9972 382.59 90.6847C384.957 95.3722 386.141 100.865 386.141 107.162C386.141 115.685 383.963 123.189 379.607 129.676C375.251 136.116 368.953 141.158 360.715 144.804C352.524 148.402 342.604 150.202 330.956 150.202C319.64 150.202 309.815 148.45 301.482 144.946C293.196 141.442 286.709 136.329 282.022 129.605C277.382 122.882 274.872 114.69 274.493 105.031H300.417C300.795 110.098 302.358 114.312 305.104 117.673C307.85 121.035 311.425 123.545 315.828 125.202C320.279 126.859 325.251 127.688 330.743 127.688C336.472 127.688 341.491 126.835 345.8 125.131C350.156 123.379 353.565 120.964 356.027 117.886C358.489 114.761 359.744 111.116 359.792 106.949C359.744 103.161 358.632 100.036 356.453 97.5739C354.275 95.0644 351.221 92.9811 347.292 91.3239C343.409 89.6193 338.864 88.1042 333.655 86.7784L317.107 82.517C305.128 79.4394 295.658 74.7756 288.698 68.5256C281.785 62.2282 278.328 53.8712 278.328 43.4545C278.328 34.8845 280.649 27.3797 285.289 20.9403C289.976 14.5009 296.345 9.50568 304.394 5.95454C312.443 2.35605 321.558 0.556813 331.738 0.556813C342.06 0.556813 351.103 2.35605 358.868 5.95454C366.681 9.50568 372.812 14.4536 377.263 20.7983C381.714 27.0956 384.01 34.34 384.152 42.5312H358.797Z" fill="#CF3012"/>
</svg>
