<svg xmlns="http://www.w3.org/2000/svg" viewBox="0 0 589 210"><defs><style>.cls-1{fill:#13459c;}</style></defs><title>Recurso 1</title><g id="Capa_2" data-name="Capa 2"><g id="Capa_1-2" data-name="Capa 1"><path id="Fill-1" class="cls-1" d="M34.7,137.9c0-9.3-4.9-14.1-14.8-14.5L9,123.7l-.3,31.5,11.7.2c9.6-1.4,14.3-7.3,14.3-17.5m3.5-16.4c3.8,3.6,5.7,8.8,5.7,15.7,0,8-2.4,14.3-7.1,18.9s-11.3,6.8-19.6,6.8H8.7v2.8l.4,22.4H0l.6-21.7L0,116.1l21.9-.1c7.1,0,12.5,1.8,16.3,5.5"/><path id="Fill-2" class="cls-1" d="M62.6,184.9H53.3L54,164l-.6-53.6,9.3-.7L62,163.4Z"/><path id="Fill-3" class="cls-1" d="M84.2,170.3a4.66,4.66,0,0,0-1,3.3,7.23,7.23,0,0,0,2.1,5.5,7.82,7.82,0,0,0,5.6,2q6.15,0,12.6-7.5l.3-8.7-16.3,3.7a7.28,7.28,0,0,0-3.3,1.7m23.8-29a11.41,11.41,0,0,1,4.2,9.3c0,1.2-.2,5.5-.7,13s-.7,11.9-.7,13.1a5,5,0,0,0,.8,3.2,3.37,3.37,0,0,0,2.7.9,14.16,14.16,0,0,0,3.8-.6l.9.7-.9,4.8a16.6,16.6,0,0,1-6.4,2.1,9.22,9.22,0,0,1-5.6-2.3,7.68,7.68,0,0,1-2.2-5.5h-.8a34,34,0,0,1-12,7.9c-5,0-8.9-1.2-11.8-3.5a12.08,12.08,0,0,1-4.2-9.7c0-6,3.5-9.8,10.5-11.3l18.2-4,.1-6.9a8.63,8.63,0,0,0-2.3-6.4c-1.5-1.5-3.7-2.2-6.6-2.2-4.9,0-10.2,2.3-15.9,7l-.9-.4-1.1-6q9.3-6.6,19.2-6.6c5.1,0,8.9,1.2,11.7,3.4"/><path id="Fill-4" class="cls-1" d="M158.7,147.6c-1.5-1.7-3.7-2.5-6.6-2.5-4.9,0-10,2.6-15.1,7.7l-.1,13.6.5,21.7h-8.8l.6-21-.4-28,8.5-.8-.1,7.2h.7a34.4,34.4,0,0,1,14.2-7.7c5.7,0,10,1.3,12.9,3.8s4.3,6.1,4.3,10.8l-.2,14,.4,21.5h-9l.6-33.6c-.2-2.8-.9-5.1-2.4-6.7"/><path id="Fill-5" class="cls-1" d="M192.1,147.3a16.8,16.8,0,0,0-4.7,9.6l24-.6.2-1.3c0-3.7-.9-6.4-2.8-8.3a10.11,10.11,0,0,0-7.5-2.8,12.77,12.77,0,0,0-9.2,3.4Zm-5.3,15.5c0,5.9,1.3,10.4,3.8,13.6s6.2,4.8,11.2,4.8a25.68,25.68,0,0,0,14.6-4.8l1,.5-.9,7.1a34,34,0,0,1-15.2,3.9c-7.1,0-12.7-2.2-16.7-6.6s-6-10.5-6-18.2,2.1-14,6.3-18.5,9.9-6.8,17.1-6.8c5.5,0,9.7,1.6,12.7,4.8s4.5,7.7,4.5,13.4l-.2,4.9-1.9,1.4-30.5.1.2.4Z"/><path id="Fill-6" class="cls-1" d="M255.9,175.8l.9.6-.8,5.5a26.82,26.82,0,0,1-10,3c-3.8-.8-6.6-2.2-8.2-4.4s-2.5-5.3-2.5-9.4l.3-7.5-.1-21.7h-6.3l-.4-.6.5-4.9h6.1v-7.8l6.9-3.1.8.7-.2,10.2h13.6l.4.6-.5,4.9H242.9l-.5,28.5c-.1,2.8.4,4.8,1.4,5.9s2.6,1.7,4.9,1.7a16.89,16.89,0,0,0,7.2-2.2"/><path id="Fill-7" class="cls-1" d="M412.5,147a9.68,9.68,0,0,0-6.9,2.6,14.75,14.75,0,0,0-3.7,7.5l17.9-.5.2-1.2q.15-8.4-7.5-8.4Zm-10.8,17.7c.6,8.7,5,13.1,13.2,13.1a31.39,31.39,0,0,0,14.3-3.7l1.2.7L428.5,185a38.28,38.28,0,0,1-14.9,3.1c-7.9,0-14-2.2-18.4-6.6s-6.6-10.5-6.6-18.3,2.2-14,6.6-18.5,10.4-6.7,17.9-6.7c6.2,0,11,1.7,14.3,5s5,8,5,14a36.42,36.42,0,0,1-.4,5.7l-2,2Z"/><path id="Fill-8" class="cls-1" d="M473.1,138.3v13.2l-1.3.5a9.37,9.37,0,0,0-3.7-.7c-3.9,0-7.4,2.6-10.5,7.9v6.9l.7,22H444.9l.7-20.6-.6-28.3,12.7-1.2-.1,9.8h.7c3.3-6.4,7.4-9.7,12.3-9.7a7.94,7.94,0,0,1,2.5.2"/><path id="Fill-9" class="cls-1" d="M497.6,184.9h-15l.8-20.8-.7-28.6,15-1.2-.9,28.4Zm-1.4-73.2a7.32,7.32,0,0,1,2,5.4,8.19,8.19,0,0,1-2.1,5.9,8.08,8.08,0,0,1-5.9,2.2,7.74,7.74,0,0,1-5.7-2,8.52,8.52,0,0,1,.2-11.2,8.5,8.5,0,0,1,6-2.2A7,7,0,0,1,496.2,111.7Z"/><path id="Fill-10" class="cls-1" d="M545.2,110.7l-1,10.6-1,.6a25.48,25.48,0,0,0-9.2-2.1c-4.6,0-7,2.5-7,7.6l-.1,8.3h12.6l.5.7-.7,7.8H526.7l-.3,18.8.8,21.9H512.3l.9-20.6-.2-20.1h-7.8l-.6-.7.8-7.8h7.5l-.1-5.9c0-6.4,2-11.4,6-14.8s9.6-5.2,16.8-5.2a48.34,48.34,0,0,1,9.6.9"/><path id="Fill-11" class="cls-1" d="M565.3,174.3h.9l8.7-27,1.8-9.1H589l-16.2,47.3c-2.4,6.8-5.5,12.1-9.5,15.8s-9.6,6.6-16.9,8.7l-1.1-.1a29.75,29.75,0,0,1-6.4-8.7l.5-1.5a39.16,39.16,0,0,0,11.4-3.7,30.74,30.74,0,0,0,8.5-6.9l-18.2-50.4,13.7-.7,1.6,8.1,8.9,28.2Z"/><path id="Fill-12" class="cls-1" d="M269.5,91.4c25.3,5.2,55.4,16.9,80.1,32.7C378.5,85.8,444.8,29.5,501.4,0,447.7,52.4,383.5,115.6,356.3,188c-24.4-34.1-46-63.5-86.8-96.6"/></g></g></svg>