<svg width="147" height="28" viewBox="0 0 147 28" fill="none" xmlns="http://www.w3.org/2000/svg">
<g clip-path="url(#clip0_2_5)">
<path d="M20.949 23.303L32.364 12.387L24.737 5.09399L21.32 8.362L25.533 12.387L17.533 20.039L20.949 23.303Z" fill="#004B8B"/>
<path d="M19.7 24.588L6.831 11.888L11.044 7.67801L7.62701 4.26099L-7.62939e-06 11.888L16.288 28C17.426 26.8633 18.5633 25.726 19.7 24.588Z" fill="#004B8B"/>
<path fill-rule="evenodd" clip-rule="evenodd" d="M16.183 1.34843e-06C15.5225 -0.00059211 14.8766 0.194717 14.3272 0.56125C13.7777 0.927783 13.3492 1.44907 13.096 2.05914C12.8429 2.66921 12.7763 3.34066 12.9048 3.98856C13.0333 4.63646 13.3511 5.23171 13.8179 5.69898C14.2848 6.16624 14.8797 6.48454 15.5275 6.61362C16.1753 6.7427 16.8468 6.67674 17.4571 6.4241C18.0674 6.17147 18.589 5.74353 18.9561 5.19437C19.3231 4.64521 19.519 3.99951 19.519 3.33899C19.5185 2.45411 19.1669 1.6056 18.5415 0.979616C17.9161 0.353632 17.0679 0.00132546 16.183 1.34843e-06Z" fill="#004B8B"/>
<path d="M56.707 11.069L53.739 14.0369C52.9161 13.0389 51.7396 12.3969 50.455 12.2449C50.0073 12.2189 49.5633 12.3394 49.19 12.588C49.0499 12.6817 48.9349 12.8083 48.8552 12.9569C48.7755 13.1055 48.7335 13.2714 48.733 13.4399C48.7361 13.7051 48.8398 13.9592 49.023 14.1509C49.451 14.5197 49.9342 14.819 50.455 15.038L52.211 15.916C53.6796 16.5408 54.9839 17.4967 56.022 18.709C56.821 19.8617 57.1766 21.2642 57.0233 22.6584C56.8701 24.0525 56.2183 25.3443 55.188 26.296C53.7949 27.4826 52.0005 28.0909 50.173 27.996C48.8789 28.0345 47.5948 27.7571 46.432 27.1879C45.2691 26.6186 44.2624 25.7746 43.499 24.7289L46.45 21.515C47.0034 22.1639 47.6737 22.7033 48.426 23.105C49.0372 23.4673 49.7274 23.6753 50.437 23.7109C50.9835 23.7372 51.5226 23.576 51.965 23.254C52.1381 23.1366 52.2809 22.9799 52.3817 22.7967C52.4826 22.6135 52.5385 22.409 52.545 22.2C52.545 21.462 51.8483 20.7416 50.455 20.0389L48.839 19.231C45.7476 17.6736 44.202 15.724 44.202 13.382C44.1961 12.6484 44.3493 11.9223 44.6511 11.2537C44.9528 10.585 45.396 9.98981 45.95 9.50897C47.1757 8.41465 48.7781 7.83856 50.42 7.90198C51.6432 7.89569 52.8506 8.17884 53.9434 8.72839C55.0363 9.27795 55.9836 10.0783 56.708 11.064L56.707 11.069Z" fill="#004B8B"/>
<path d="M58.358 8.39896H63.051L66.894 19.271L71.028 8.39896H73.898L77.958 19.148L81.805 8.39896H86.529L79.556 27.508H76.517L72.444 16.614L68.244 27.503H65.244L58.358 8.39896Z" fill="#004B8B"/>
<path d="M88.914 8.39899V27.509H93.708V8.39899H88.914Z" fill="#004B8B"/>
<path d="M97.624 2.189H102.419V9.008H105.264V13.008H102.419V27.508H97.624V13.008H95.165V9.008H97.624V2.189Z" fill="#004B8B"/>
<path d="M126.137 12.263L122.15 14.453C121.529 13.7618 120.771 13.206 119.926 12.82C119.106 12.4996 118.23 12.3444 117.35 12.363C116.555 12.3277 115.76 12.4509 115.013 12.7256C114.266 13.0003 113.581 13.4209 112.998 13.963C112.449 14.4942 112.017 15.1346 111.731 15.8429C111.445 16.5511 111.31 17.3115 111.336 18.075C111.309 18.8136 111.438 19.5495 111.714 20.2352C111.989 20.9209 112.406 21.5412 112.936 22.056C113.499 22.5785 114.16 22.984 114.881 23.2488C115.602 23.5137 116.369 23.6327 117.136 23.599C118.085 23.6473 119.032 23.4736 119.902 23.0917C120.772 22.7098 121.541 22.1301 122.148 21.399L125.929 23.988C124.914 25.1531 123.678 26.1047 122.292 26.7873C120.906 27.47 119.398 27.87 117.855 27.9642C116.313 28.0584 114.768 27.8448 113.309 27.3359C111.85 26.827 110.507 26.033 109.358 25C108.266 23.8989 107.447 22.5574 106.966 21.0828C106.486 19.6082 106.357 18.0416 106.591 16.5084C106.825 14.9752 107.415 13.5182 108.313 12.2539C109.211 10.9896 110.393 9.95334 111.764 9.22802C113.476 8.32461 115.387 7.86555 117.323 7.893C119.092 7.86426 120.843 8.25239 122.434 9.02599C123.926 9.76917 125.201 10.884 126.137 12.263Z" fill="#004B8B"/>
<path d="M145.333 10.437C144.702 9.81309 143.952 9.32283 143.127 8.99551C142.302 8.6682 141.42 8.51055 140.533 8.53198C139.543 8.53488 138.564 8.73442 137.652 9.11899C136.625 9.55748 135.672 10.1511 134.825 10.879V2.189H130.065V27.509H134.825V20.078C134.777 18.8049 134.847 17.5301 135.035 16.27C135.246 15.2908 135.752 14.3998 136.485 13.717C137.17 13.0998 138.063 12.7662 138.985 12.784C139.658 12.7611 140.321 12.9572 140.873 13.343C141.417 13.7701 141.798 14.3697 141.955 15.043C142.222 16.477 142.327 17.9365 142.269 19.394V27.506H146.999V15.282C147.063 14.4038 146.948 13.5218 146.662 12.6891C146.375 11.8564 145.923 11.0903 145.333 10.437Z" fill="#004B8B"/>
<path fill-rule="evenodd" clip-rule="evenodd" d="M91.253 1.34843e-06C90.5925 -0.00059211 89.9466 0.194717 89.3971 0.56125C88.8477 0.927783 88.4192 1.44907 88.166 2.05914C87.9129 2.66921 87.8463 3.34066 87.9748 3.98856C88.1033 4.63646 88.4211 5.23171 88.8879 5.69898C89.3547 6.16624 89.9497 6.48454 90.5975 6.61362C91.2453 6.7427 91.9168 6.67674 92.5271 6.4241C93.1374 6.17147 93.659 5.74353 94.0261 5.19437C94.3931 4.64521 94.589 3.99951 94.589 3.33899C94.5885 2.45411 94.2369 1.6056 93.6115 0.979616C92.9861 0.353632 92.1379 0.00132546 91.253 1.34843e-06Z" fill="#004B8B"/>
</g>
<defs>
<clipPath id="clip0_2_5">
<rect width="147" height="28" fill="white"/>
</clipPath>
</defs>
</svg>
