<svg width="62" height="56" viewBox="0 0 62 56" fill="none" xmlns="http://www.w3.org/2000/svg">
<path d="M40.912 2.58801C40.9892 2.33692 41.0162 2.07308 40.9915 1.81156C40.9667 1.55003 40.8907 1.29594 40.7678 1.0638C40.6448 0.83165 40.4774 0.625992 40.2749 0.458566C40.0725 0.291139 39.8391 0.165223 39.588 0.0880058C39.3369 0.0107885 39.0731 -0.0162172 38.8116 0.00853038C38.55 0.0332779 38.2959 0.109294 38.0638 0.232239C37.8316 0.355184 37.626 0.522649 37.4586 0.725074C37.2911 0.927499 37.1652 1.16092 37.088 1.41201L21.088 53.412C20.9321 53.9191 20.9839 54.4674 21.2322 54.9362C21.4805 55.4051 21.9049 55.7561 22.412 55.912C22.9191 56.068 23.4674 56.0161 23.9362 55.7678C24.4051 55.5195 24.7561 55.0951 24.912 54.588L40.912 2.58801ZM18.416 12.584C18.6023 12.7698 18.75 12.9905 18.8509 13.2335C18.9517 13.4765 19.0036 13.7369 19.0036 14C19.0036 14.2631 18.9517 14.5236 18.8509 14.7665C18.75 15.0095 18.6023 15.2302 18.416 15.416L5.828 28L18.416 40.584C18.7916 40.9596 19.0025 41.4689 19.0025 42C19.0025 42.5311 18.7916 43.0405 18.416 43.416C18.0405 43.7916 17.5311 44.0025 17 44.0025C16.4689 44.0025 15.9596 43.7916 15.584 43.416L1.584 29.416C1.39775 29.2302 1.24998 29.0095 1.14915 28.7665C1.04833 28.5236 0.996429 28.2631 0.996429 28C0.996429 27.7369 1.04833 27.4765 1.14915 27.2335C1.24998 26.9905 1.39775 26.7698 1.584 26.584L15.584 12.584C15.7698 12.3978 15.9905 12.25 16.2335 12.1492C16.4765 12.0483 16.7369 11.9964 17 11.9964C17.2631 11.9964 17.5236 12.0483 17.7665 12.1492C18.0095 12.25 18.2302 12.3978 18.416 12.584ZM43.584 12.584C43.3978 12.7698 43.25 12.9905 43.1492 13.2335C43.0483 13.4765 42.9964 13.7369 42.9964 14C42.9964 14.2631 43.0483 14.5236 43.1492 14.7665C43.25 15.0095 43.3978 15.2302 43.584 15.416L56.172 28L43.584 40.584C43.3981 40.77 43.2505 40.9907 43.1499 41.2337C43.0493 41.4766 42.9975 41.737 42.9975 42C42.9975 42.263 43.0493 42.5234 43.1499 42.7663C43.2505 43.0093 43.3981 43.2301 43.584 43.416C43.77 43.602 43.9907 43.7495 44.2337 43.8501C44.4766 43.9507 44.737 44.0025 45 44.0025C45.263 44.0025 45.5234 43.9507 45.7663 43.8501C46.0093 43.7495 46.2301 43.602 46.416 43.416L60.416 29.416C60.6023 29.2302 60.75 29.0095 60.8509 28.7665C60.9517 28.5236 61.0036 28.2631 61.0036 28C61.0036 27.7369 60.9517 27.4765 60.8509 27.2335C60.75 26.9905 60.6023 26.7698 60.416 26.584L46.416 12.584C46.2302 12.3978 46.0095 12.25 45.7665 12.1492C45.5236 12.0483 45.2631 11.9964 45 11.9964C44.7369 11.9964 44.4765 12.0483 44.2335 12.1492C43.9905 12.25 43.7698 12.3978 43.584 12.584Z" fill="#00CE79"/>
</svg>
