<svg xmlns="http://www.w3.org/2000/svg" width="96.827" height="91.344" viewBox="0 0 96.827 91.344"><g id="Group_8" data-name="Group 8" transform="translate(694 -166.387)"><path id="Path_1" data-name="Path 1" d="M-849.871-28.8c4.253-.549,8.638-3.043,10.22-5.963-8.352,3.273-25.978,7-31.211-9.511-2.561-8.078,1.564-16.291,11.143-18.012-10.735,4.858-11.04,12.516-8.01,19.491,9.611-1.98,17.566-13.1,13.638-22.972-14.022-.832-24.356,11.942-18.362,24.752A21.956,21.956,0,0,0-849.871-28.8Z" transform="translate(204.714 242.569)" fill="#b88b2d" fill-rule="evenodd"></path><path id="Path_2" data-name="Path 2" d="M-886.1-99.94a36.6,36.6,0,0,1,34.451,38.621,36.522,36.522,0,0,1-15,27.5,36.588,36.588,0,0,0,12.21-25.466c1.123-19.681-13.036-36.5-31.624-37.556s-34.568,14.034-35.691,33.715a36.426,36.426,0,0,0,11.16,28.657,36.55,36.55,0,0,1-14.129-31.02A36.6,36.6,0,0,1-886.1-99.94Z" transform="translate(239.951 266.388)" fill="#ffcb6d" fill-rule="evenodd"></path><path id="Path_3" data-name="Path 3" d="M-822.45,16.528c12.764-5.622,19.461-10.279,21.8,1.782,1.436,5.282.307,13.17-.7,18.651-1.076,5.836-3.6,13.749-6.636,18.828-.594.992-1.165,2.552-2.429,2.707C-812.909,55-812.946,36.147-826.3,35.923c14.341,6.366,10.3,19.572,13.136,28.1,4.113,9.528,11.67-14.24,12.678-17.465,2.8-9.682,11.424-29.273,3.159-37.186-5.659-5.418-21.4,2.577-25.121,7.159Z" transform="translate(171.357 191.473)" fill="#b88b2d" fill-rule="evenodd"></path><path id="Path_4" data-name="Path 4" d="M-736.556,68.75c10.144.035,20.171-3.535,29.7-18.514-8.493,20.967-19.07,23.816-30.9,22.676.372-1.3.781-2.7,1.2-4.162Z" transform="translate(109.682 161.742)" fill="#ffcb6d" fill-rule="evenodd"></path><path id="Path_5" data-name="Path 5" d="M-955,121.868c12.1-18.845,26.127-21.811,39.5-21.009a19.362,19.362,0,0,1,6.031,4.394c-14.314-1.577-30.262-.394-45.534,16.615Z" transform="translate(261 126.562)" fill="#ffcb6d" fill-rule="evenodd"></path><path id="Path_6" data-name="Path 6" d="M-866.595,31.233c-5.313,1.975-5.378,12.6-3.829,18.568-1.534.195-1.917.32-3.458.634-1.645-6.1-4.015-19.568,3.072-23.437a21.059,21.059,0,0,0,4.216,4.234Z" transform="translate(205.713 177.928)" fill="#b88b2d" fill-rule="evenodd"></path><path id="Path_7" data-name="Path 7" d="M-783.553,53.83l-.476-.21.228-.078c.087.1.17.194.248.289Z" transform="translate(141.911 159.44)" fill="#b88b2d" fill-rule="evenodd"></path><path id="Path_8" data-name="Path 8" d="M-862.81,114.161a44.672,44.672,0,0,0,3.126,6.59c.594.992,1.166,2.553,2.429,2.707,1.009-1.413,1.755-5.366,3.17-9.584q1.139.046,2.271.127c-1.363,5.212-1.265,10.7-2.69,14.982-3.415,7.911-9.2-7.129-11.646-14.309q1.676-.321,3.34-.513Z" transform="translate(199.113 117.416)" fill="#b88b2d" fill-rule="evenodd"></path><path id="Path_9" data-name="Path 9" d="M-892.4,14.764a15.612,15.612,0,0,0-1.13-1.681,6.15,6.15,0,0,0-9.576-1.207c4.8-2.415,7.6-.33,9.2,2.742-3.455,2.84-9.673,2.477-12.05-1.743,3.511-4.918,10.378-5.2,13.514-.342a8.144,8.144,0,0,1,.039,2.232Z" transform="translate(226.838 190.44)" fill="#b88b2d" fill-rule="evenodd"></path></g></svg>